<svg xmlns="http://www.w3.org/2000/svg" x="0px" y="0px"
width="40" height="40"
viewBox="0 0 226 226"
style=" fill:#000000;"><g fill="none" fill-rule="nonzero" stroke="none" stroke-width="1" stroke-linecap="butt" stroke-linejoin="miter" stroke-miterlimit="10" stroke-dasharray="" stroke-dashoffset="0" font-family="none" font-weight="none" font-size="none" text-anchor="none" style="mix-blend-mode: normal"><path d="M0,226v-226h226v226z" fill="none"></path><g fill="#e74c3c"><path d="M113,200.22188l-2.87797,-2.38359c-4.52,-3.74312 -10.59375,-7.87469 -17.60328,-12.65953c-27.84391,-18.99812 -69.91875,-47.70719 -69.91875,-93.48984c0,-28.12641 23.04141,-51.00891 51.36203,-51.00891c15.14906,0 29.32703,6.58578 39.03797,17.88578c9.71094,-11.3 23.90656,-17.88578 39.03797,-17.88578c28.32062,0 51.36203,22.8825 51.36203,51.00891c0,45.78266 -42.07484,74.49172 -69.91875,93.48984c-7.02719,4.78484 -13.08328,8.91641 -17.60328,12.65953z"></path></g></g></svg> 