<svg xmlns="http://www.w3.org/2000/svg" x="0px" y="0px"
width="40" height="40"
viewBox="0 0 226 226"
style=" fill:#000000;"><g fill="none" fill-rule="nonzero" stroke="none" stroke-width="1" stroke-linecap="butt" stroke-linejoin="miter" stroke-miterlimit="10" stroke-dasharray="" stroke-dashoffset="0" font-family="none" font-weight="none" font-size="none" text-anchor="none" style="mix-blend-mode: normal"><path d="M0,226v-226h226v226z" fill="none"></path><g fill="#e74c3c"><path d="M74.015,40.68c-28.28531,0 -51.415,22.84719 -51.415,50.99125c0,57.71828 65.48703,87.94578 87.575,106.22l2.825,2.40125l2.825,-2.40125c22.08797,-18.27422 87.575,-48.50172 87.575,-106.22c0,-28.14406 -23.12969,-50.99125 -51.415,-50.99125c-15.71406,0 -29.55656,7.29203 -38.985,18.3625c-9.42844,-11.07047 -23.27094,-18.3625 -38.985,-18.3625zM74.015,49.72c14.76063,0 27.59672,7.46859 35.17125,18.78625l3.81375,5.65l3.81375,-5.65c7.57453,-11.31766 20.41062,-18.78625 35.17125,-18.78625c23.42984,0 42.375,18.73328 42.375,41.95125c0,49.26094 -55.42297,76.87531 -81.36,97.18c-25.93703,-20.30469 -81.36,-47.91906 -81.36,-97.18c0,-23.21797 18.9275,-41.95125 42.375,-41.95125z"></path></g></g></svg> 